<?xml version="1.0" standalone="no"?>
<!DOCTYPE svg PUBLIC "-//W3C//DTD SVG 20010904//EN"
 "http://www.w3.org/TR/2001/REC-SVG-20010904/DTD/svg10.dtd">
<svg version="1.0" xmlns="http://www.w3.org/2000/svg"
 width="277.000000pt" height="277.000000pt" viewBox="0 0 277.000000 277.000000"
 preserveAspectRatio="xMidYMid meet">
<metadata>
Created by potrace 1.14, written by Peter Selinger 2001-2017
</metadata>
<g transform="translate(0.000000,277.000000) scale(0.100000,-0.100000)"
fill="#000000" stroke="none">
<path d="M1255 2310 c21 -22 41 -40 44 -40 3 0 -13 18 -34 40 -21 22 -41 40
-44 40 -3 0 13 -18 34 -40z"/>
<path d="M861 2316 c2 -2 15 -9 29 -15 24 -11 24 -11 6 3 -16 13 -49 24 -35
12z"/>
<path d="M959 2262 l24 -20 -21 -6 c-12 -4 -26 -4 -32 -1 -5 3 -10 1 -10 -5 0
-8 13 -10 39 -5 23 4 48 2 58 -4 13 -7 -16 -10 -106 -10 -68 0 -121 2 -118 5
3 3 28 6 56 6 28 -1 51 3 51 8 0 4 -9 6 -21 3 -12 -4 -25 0 -30 8 -6 9 -9 10
-9 2 0 -9 -23 -12 -75 -11 -42 0 -79 -3 -83 -7 -4 -4 12 -5 34 -2 23 2 47 1
54 -3 17 -11 -71 -16 -140 -9 -52 5 -34 14 20 10 18 -1 21 1 11 8 -13 8 -89 6
-136 -3 -11 -3 -23 -5 -27 -5 -5 -1 -8 -64 -8 -140 l0 -140 85 54 c130 82 334
160 468 180 l47 7 -38 27 c-54 39 -125 79 -93 53z m-390 -46 c-12 -10 -59 -15
-59 -6 0 6 3 9 8 7 4 -3 16 -1 27 3 19 7 34 5 24 -4z"/>
<path d="M1325 2229 c29 -34 34 -36 108 -42 43 -4 85 -11 95 -17 15 -10 15
-10 -3 -6 -11 2 -51 7 -88 11 -66 6 -68 6 -58 -13 9 -17 25 -20 138 -25 189
-8 349 -47 518 -127 75 -36 235 -134 235 -144 0 -3 -32 15 -71 39 -195 120
-475 190 -683 170 l-75 -7 32 -58 c18 -32 36 -56 41 -53 5 4 6 2 3 -4 -4 -5 9
-49 28 -97 73 -186 100 -354 92 -570 -7 -182 -36 -320 -102 -488 -6 -15 -2
-18 24 -18 l31 0 0 -127 c0 -215 -12 -233 -158 -233 l-93 0 3 27 c3 27 4 28
75 29 40 1 77 5 82 9 22 13 10 25 -26 25 -21 0 -55 5 -75 10 -91 26 -115 162
-42 231 19 18 40 25 87 29 l62 5 22 67 c61 182 69 439 20 628 -50 191 -129
354 -239 490 -57 70 -49 69 -179 19 -226 -87 -446 -270 -590 -489 l-49 -75 0
-542 0 -543 895 0 895 0 -1 933 c0 512 -3 939 -7 947 -5 10 -24 15 -62 16 -30
1 -45 -1 -32 -3 38 -8 24 -18 -28 -20 -28 -1 -50 2 -50 7 0 6 -5 10 -11 10 -5
0 -7 -5 -3 -12 4 -6 3 -8 -3 -5 -6 4 -24 2 -41 -2 -23 -7 -32 -6 -36 5 -6 16
-52 19 -61 4 -10 -16 -95 -13 -89 3 3 8 -3 13 -16 13 -11 0 -19 -5 -16 -11 3
-8 -14 -12 -47 -12 -39 0 -43 1 -14 4 54 6 46 18 -13 18 -48 0 -64 -8 -37 -18
6 -3 2 -6 -11 -6 -13 -1 -20 3 -17 9 3 6 1 10 -4 10 -6 0 -11 -4 -11 -8 0 -4
-16 -9 -36 -10 -20 -2 -39 -3 -43 -4 -3 0 -21 0 -40 1 -58 2 -25 13 39 13 33
0 60 3 60 7 0 6 -186 6 -240 0 -14 -1 4 -5 40 -9 l65 -7 -80 -1 c-58 -1 -76 1
-65 9 12 8 11 9 -6 7 -12 -2 -32 6 -45 17 -17 14 -15 10 6 -16z m655 -19 c0
-5 -7 -7 -15 -4 -8 4 -15 8 -15 10 0 2 7 4 15 4 8 0 15 -4 15 -10z m273 3 c-7
-2 -19 -2 -25 0 -7 3 -2 5 12 5 14 0 19 -2 13 -5z m-453 -174 c19 -5 69 -19
110 -30 83 -22 209 -68 215 -80 3 -4 -2 -10 -11 -13 -8 -3 -12 -2 -9 4 3 6 1
10 -4 10 -17 0 -24 2 -48 11 -14 5 -25 4 -29 -2 -3 -6 3 -13 15 -16 12 -3 21
-11 21 -18 0 -23 -32 -26 -65 -6 -22 13 -46 17 -76 15 -31 -3 -40 -1 -29 6 8
5 30 10 49 10 19 0 32 2 29 5 -3 3 -38 6 -79 6 -83 1 -112 6 -104 19 9 14 -16
23 -28 11 -9 -9 -7 -10 7 -5 15 6 17 4 11 -7 -21 -33 -29 -35 -48 -16 -14 14
-21 16 -27 7 -6 -10 -12 -10 -26 0 -16 10 -16 11 -1 6 9 -3 17 -1 17 4 0 5 12
11 28 13 25 4 25 4 -5 6 -31 1 -49 21 -20 21 6 0 4 5 -6 11 -9 6 -26 8 -36 4
-11 -3 -22 -1 -25 4 -4 5 2 10 11 10 17 0 128 17 128 20 0 0 16 -4 35 -10z
m-147 -31 c32 1 32 1 7 -28 -15 -17 -20 -19 -20 -7 0 8 -6 17 -12 20 -18 5
-48 -3 -48 -14 0 -5 -13 -3 -30 6 -39 20 -38 28 4 23 20 -2 32 0 29 6 -4 5 3
6 18 1 13 -4 36 -7 52 -7z m222 -108 c3 -5 1 -10 -4 -10 -6 0 -11 5 -11 10 0
6 2 10 4 10 3 0 8 -4 11 -10z m-958 -1144 c27 -24 28 -26 28 -133 l0 -108 -37
-3 -37 -3 -3 103 -3 103 -37 3 -38 3 0 -106 0 -106 -37 3 -38 3 -3 103 -3 102
-39 0 -40 0 0 -105 0 -105 -35 0 -35 0 0 135 0 135 164 0 c160 0 166 -1 193
-24z m327 -7 c24 -29 26 -37 26 -136 l0 -105 -115 4 c-103 3 -117 5 -137 25
-30 30 -30 86 0 116 18 17 36 22 98 25 62 4 75 7 72 20 -4 21 -38 30 -115 31
-60 1 -63 2 -63 26 l0 25 104 0 c104 0 104 0 130 -31z m617 12 c22 -18 24 -27
27 -136 l4 -116 -39 3 -38 3 -5 100 -5 100 -47 3 -48 3 0 -105 0 -106 -35 0
-35 0 0 135 0 135 99 0 c82 0 103 -3 122 -19z m323 -12 c24 -29 26 -37 26
-136 l0 -105 -116 4 c-114 3 -116 4 -141 32 -19 23 -23 36 -19 60 11 54 37 70
122 74 62 4 75 7 72 20 -4 21 -38 30 -115 31 -60 1 -63 2 -63 26 l0 25 104 0
c104 0 104 0 130 -31z"/>
<path d="M1980 1919 c0 -5 5 -7 10 -4 6 3 10 8 10 11 0 2 -4 4 -10 4 -5 0 -10
-5 -10 -11z"/>
<path d="M2020 1898 c0 -4 4 -8 9 -8 6 0 12 4 15 8 3 5 -1 9 -9 9 -8 0 -15 -4
-15 -9z"/>
<path d="M1074 605 c-10 -26 6 -35 62 -35 51 0 54 1 54 25 0 24 -3 25 -55 25
-39 0 -57 -4 -61 -15z"/>
<path d="M2014 605 c-10 -26 6 -35 62 -35 51 0 54 1 54 25 0 24 -3 25 -55 25
-39 0 -57 -4 -61 -15z"/>
<path d="M2035 2230 l-30 -8 27 -1 c15 0 30 4 33 9 3 6 5 9 3 9 -2 -1 -16 -5
-33 -9z"/>
<path d="M1883 2223 c9 -2 23 -2 30 0 6 3 -1 5 -18 5 -16 0 -22 -2 -12 -5z"/>
<path d="M2118 2223 c6 -2 18 -2 25 0 6 3 1 5 -13 5 -14 0 -19 -2 -12 -5z"/>
<path d="M1026 2133 c-164 -43 -347 -143 -475 -260 -43 -39 -61 -62 -61 -79 0
-23 4 -22 68 29 170 138 366 235 554 277 48 11 56 16 46 27 -24 29 -43 30
-132 6z"/>
<path d="M1406 704 c-17 -16 -21 -80 -7 -102 9 -15 22 2 60 76 l21 42 -29 0
c-16 0 -37 -7 -45 -16z"/>
<path d="M1458 654 c-21 -37 -35 -70 -32 -75 3 -5 23 -9 45 -9 l39 0 0 75 c0
41 -3 75 -7 75 -5 0 -25 -30 -45 -66z"/>
<path d="M1230 180 c0 -93 1 -100 20 -100 19 0 20 7 20 100 0 93 -1 100 -20
100 -19 0 -20 -7 -20 -100z"/>
<path d="M2247 273 c-14 -13 -6 -33 13 -33 13 0 20 7 20 20 0 19 -20 27 -33
13z"/>
<path d="M490 205 c-7 -8 -10 -25 -6 -39 5 -22 13 -25 54 -28 34 -2 47 -7 47
-18 0 -11 -14 -16 -52 -18 -29 -2 -53 -8 -53 -13 0 -6 27 -9 68 -7 l67 3 0 35
c0 34 -1 35 -44 40 -65 7 -66 30 -2 30 39 0 51 4 51 15 0 21 -112 21 -130 0z"/>
<path d="M867 202 c-27 -30 -22 -87 9 -111 34 -27 64 -27 98 0 30 24 35 72 10
107 -20 29 -93 31 -117 4z m91 -54 c-2 -17 -11 -36 -21 -42 -15 -9 -22 -7 -38
13 -24 29 -24 36 1 61 29 29 62 11 58 -32z"/>
<path d="M1500 169 c0 -78 10 -89 80 -89 l60 0 0 70 c0 63 -2 70 -20 70 -18 0
-20 -7 -20 -54 0 -58 -8 -71 -40 -61 -17 5 -20 15 -20 61 0 47 -2 54 -20 54
-17 0 -20 -7 -20 -51z"/>
<path d="M1880 206 c-6 -8 -10 -25 -8 -38 2 -19 10 -24 50 -28 26 -3 50 -9 54
-12 15 -15 -11 -28 -57 -28 -27 0 -49 -5 -49 -10 0 -7 25 -10 68 -8 l67 3 0
35 c0 34 -1 35 -44 40 -62 7 -67 30 -7 30 34 0 46 4 46 15 0 21 -102 21 -120
1z"/>
<path d="M2240 150 c0 -63 2 -70 20 -70 18 0 20 7 20 70 0 63 -2 70 -20 70
-18 0 -20 -7 -20 -70z"/>
</g>
</svg>
